<?xml version="1.0" encoding="UTF-8"?>
<svg id="Layer_1" data-name="Layer 1" xmlns="http://www.w3.org/2000/svg" version="1.1" xmlns:xlink="http://www.w3.org/1999/xlink" viewBox="0 0 433.6 192">
  <defs>
    <style>
      .cls-1 {
        stroke-width: 1.4px;
      }

      .cls-1, .cls-2, .cls-3 {
        fill: none;
      }

      .cls-1, .cls-3 {
        stroke: #000;
        stroke-linecap: round;
        stroke-linejoin: round;
      }

      .cls-4 {
        clip-path: url(#clippath-2);
      }

      .cls-5, .cls-6, .cls-7 {
        isolation: isolate;
      }

      .cls-8 {
        clip-path: url(#clippath-6);
      }

      .cls-2, .cls-9 {
        stroke-width: 0px;
      }

      .cls-10 {
        clip-path: url(#clippath-1);
      }

      .cls-11 {
        clip-path: url(#clippath-4);
      }

      .cls-6 {
        font-family: ISOCPEUR, ISOCPEUR;
        font-size: 15.3px;
      }

      .cls-6, .cls-9, .cls-7 {
        fill: #000;
      }

      .cls-9 {
        fill-rule: evenodd;
      }

      .cls-3 {
        stroke-width: .7px;
      }

      .cls-12 {
        clip-path: url(#clippath);
      }

      .cls-13 {
        clip-path: url(#clippath-3);
      }

      .cls-7 {
        font-family: AIGDT, AIGDT;
        font-size: 13px;
      }

      .cls-14 {
        clip-path: url(#clippath-5);
      }
    </style>
    <clipPath id="clippath">
      <rect class="cls-2" x="-1460.4" y="-1060.7" width="3367.4" height="2381"/>
    </clipPath>
    <clipPath id="clippath-1">
      <rect class="cls-2" x="-1460.4" y="-1060.7" width="3367.4" height="2381"/>
    </clipPath>
    <clipPath id="clippath-2">
      <rect class="cls-2" x="-1460.4" y="-1060.7" width="3367.4" height="2381"/>
    </clipPath>
    <clipPath id="clippath-3">
      <rect class="cls-2" x="-1460.4" y="-1060.7" width="3367.4" height="2381"/>
    </clipPath>
    <clipPath id="clippath-4">
      <rect class="cls-2" x="-1460.4" y="-1060.7" width="3367.4" height="2381"/>
    </clipPath>
    <clipPath id="clippath-5">
      <rect class="cls-2" x="-1460.4" y="-1060.7" width="3367.4" height="2381"/>
    </clipPath>
    <clipPath id="clippath-6">
      <rect class="cls-2" x="-1460.4" y="-1060.7" width="3367.4" height="2381"/>
    </clipPath>
  </defs>
  <g class="cls-12">
    <g>
      <path class="cls-1" d="M111.5,146.4c1.6,9.1,9.5,15.7,18.7,15.7"/>
      <line class="cls-1" x1="316.6" y1="162.1" x2="130.1" y2="162.1"/>
      <path class="cls-1" d="M316.5,162.1c9.2,0,17.1-6.6,18.7-15.7"/>
      <line class="cls-1" x1="340" y1="119.8" x2="335.3" y2="146.4"/>
      <path class="cls-1" d="M340,119.8c1-5.5-.5-11.2-4.1-15.5-3.6-4.3-8.9-6.8-14.5-6.8"/>
      <line class="cls-1" x1="125.4" y1="97.5" x2="321.3" y2="97.5"/>
      <path class="cls-1" d="M125.5,97.5c-5.6,0-10.9,2.5-14.6,6.8-3.6,4.3-5.1,10-4.2,15.5"/>
      <line class="cls-1" x1="111.6" y1="146.4" x2="106.7" y2="119.8"/>
      <path class="cls-1" d="M365.4,129.8c0-4.8-3.9-8.7-8.7-8.7s-8.7,3.9-8.7,8.7,3.9,8.7,8.7,8.7,8.7-3.9,8.7-8.7"/>
      <path class="cls-1" d="M98.8,129.8c0-4.8-3.9-8.7-8.7-8.7s-8.7,3.9-8.7,8.7,3.9,8.7,8.7,8.7,8.7-3.9,8.7-8.7"/>
    </g>
  </g>
  <g class="cls-10">
    <g class="cls-5">
      <text class="cls-6" transform="translate(218.8 28.9)"><tspan x="0" y="0">A</tspan></text>
    </g>
    <line class="cls-3" x1="97.2" y1="33.4" x2="90" y2="33.4"/>
    <polygon class="cls-9" points="97.2 32.1 97.2 32.1 90 33.4 97.2 34.8 97.2 32.1"/>
    <polyline class="cls-3" points="97.2 32.1 90 33.4 97.2 34.8 97.2 32.1"/>
    <line class="cls-3" x1="349.7" y1="33.4" x2="356.7" y2="33.4"/>
    <polygon class="cls-9" points="349.7 34.8 349.7 34.8 356.7 33.4 349.7 32.1 349.7 34.8"/>
    <polyline class="cls-3" points="349.7 34.8 356.7 33.4 349.7 32.1 349.7 34.8"/>
    <line class="cls-3" x1="97.2" y1="33.4" x2="349.7" y2="33.4"/>
    <line class="cls-3" x1="356.7" y1="114.2" x2="356.7" y2="24.4"/>
    <line class="cls-3" x1="90" y1="114.2" x2="90" y2="24.4"/>
    <polyline class="cls-3" points="90 145.5 90 129.9 90 114.2"/>
    <polyline class="cls-3" points="356.7 145.5 356.7 129.9 356.7 114.2"/>
    <line class="cls-3" x1="90" y1="129.9" x2="74.3" y2="129.9"/>
    <line class="cls-3" x1="356.7" y1="129.9" x2="372.4" y2="129.9"/>
    <line class="cls-3" x1="90" y1="129.9" x2="105.8" y2="129.9"/>
    <line class="cls-3" x1="356.7" y1="129.9" x2="341.1" y2="129.9"/>
    <line class="cls-3" x1="105.8" y1="129.9" x2="117.9" y2="129.9"/>
    <line class="cls-3" x1="122" y1="129.9" x2="126.3" y2="129.9"/>
    <line class="cls-3" x1="130.6" y1="129.9" x2="142.5" y2="129.9"/>
    <line class="cls-3" x1="146.8" y1="129.9" x2="151.2" y2="129.9"/>
    <line class="cls-3" x1="155.3" y1="129.9" x2="167.4" y2="129.9"/>
    <line class="cls-3" x1="171.7" y1="129.9" x2="175.8" y2="129.9"/>
    <line class="cls-3" x1="180.1" y1="129.9" x2="192.2" y2="129.9"/>
    <line class="cls-3" x1="196.5" y1="129.9" x2="200.7" y2="129.9"/>
    <line class="cls-3" x1="205" y1="129.9" x2="217" y2="129.9"/>
    <line class="cls-3" x1="221.2" y1="129.9" x2="225.5" y2="129.9"/>
    <line class="cls-3" x1="229.8" y1="129.9" x2="241.7" y2="129.9"/>
    <line class="cls-3" x1="246" y1="129.9" x2="250.3" y2="129.9"/>
    <line class="cls-3" x1="254.5" y1="129.9" x2="266.5" y2="129.9"/>
    <line class="cls-3" x1="270.9" y1="129.9" x2="275.2" y2="129.9"/>
    <line class="cls-3" x1="279.3" y1="129.9" x2="291.4" y2="129.9"/>
    <line class="cls-3" x1="295.7" y1="129.9" x2="299.8" y2="129.9"/>
    <line class="cls-3" x1="304.2" y1="129.9" x2="316.2" y2="129.9"/>
    <line class="cls-3" x1="320.4" y1="129.9" x2="324.7" y2="129.9"/>
    <line class="cls-3" x1="329" y1="129.9" x2="341.1" y2="129.9"/>
    <line class="cls-3" x1="223.3" y1="97.5" x2="223.3" y2="90.3"/>
    <line class="cls-3" x1="223.3" y1="162.1" x2="223.3" y2="169.1"/>
    <line class="cls-3" x1="223.3" y1="97.5" x2="223.3" y2="104.5"/>
    <line class="cls-3" x1="223.3" y1="162.1" x2="223.3" y2="155.1"/>
    <line class="cls-3" x1="223.3" y1="104.5" x2="223.3" y2="123.4"/>
    <line class="cls-3" x1="223.3" y1="127.7" x2="223.3" y2="131.8"/>
    <line class="cls-3" x1="223.3" y1="136.2" x2="223.3" y2="155.1"/>
    <g class="cls-5">
      <text class="cls-6" transform="translate(219.9 49.6)"><tspan x="0" y="0">C</tspan></text>
    </g>
    <line class="cls-3" x1="113.5" y1="54.1" x2="106.5" y2="54.1"/>
    <polygon class="cls-9" points="113.5 52.6 113.5 52.6 106.5 54.1 113.5 55.5 113.5 52.6"/>
    <polyline class="cls-3" points="113.5 52.6 106.5 54.1 113.5 55.5 113.5 52.6"/>
    <line class="cls-3" x1="333.1" y1="54.1" x2="340.3" y2="54.1"/>
    <polygon class="cls-9" points="333.1 55.5 333.1 55.5 340.3 54.1 333.1 52.6 333.1 55.5"/>
    <polyline class="cls-3" points="333.1 55.5 340.3 54.1 333.1 52.6 333.1 55.5"/>
    <line class="cls-3" x1="113.5" y1="54.1" x2="333.1" y2="54.1"/>
    <line class="cls-3" x1="340.3" y1="114.2" x2="340.3" y2="45.1"/>
    <line class="cls-3" x1="106.5" y1="114.2" x2="106.5" y2="45.1"/>
    <line class="cls-3" x1="340.3" y1="114.2" x2="340.3" y2="67.2"/>
  </g>
  <g class="cls-4">
    <g>
      <g class="cls-5">
        <text class="cls-6" transform="translate(24.6 133.3) rotate(-90.1)"><tspan x="0" y="0">E</tspan></text>
      </g>
      <line class="cls-3" x1="29.1" y1="104.5" x2="29.1" y2="97.5"/>
      <polygon class="cls-9" points="30.6 104.5 30.6 104.5 29.1 97.5 27.7 104.5 30.6 104.5"/>
      <polyline class="cls-3" points="30.6 104.5 29.1 97.5 27.7 104.5 30.6 104.5"/>
      <line class="cls-3" x1="29.1" y1="155.1" x2="29.1" y2="162.1"/>
      <polygon class="cls-9" points="27.7 155.1 27.7 155.1 29.1 162.1 30.6 155.1 27.7 155.1"/>
      <polyline class="cls-3" points="27.7 155.1 29.1 162.1 30.6 155.1 27.7 155.1"/>
      <line class="cls-3" x1="29.1" y1="104.5" x2="29.1" y2="155.1"/>
      <line class="cls-3" x1="123.3" y1="97.5" x2="20.1" y2="97.5"/>
      <line class="cls-3" x1="127.9" y1="162.1" x2="20.1" y2="162.1"/>
    </g>
  </g>
  <g class="cls-13">
    <g>
      <g class="cls-5">
        <text class="cls-6" transform="translate(57.2 117.1) rotate(-90.1)"><tspan x="0" y="0">F</tspan></text>
      </g>
      <line class="cls-3" x1="61.7" y1="122.8" x2="61.7" y2="129.9"/>
      <polygon class="cls-9" points="60.3 122.8 60.3 122.8 61.7 129.9 63.1 122.8 60.3 122.8"/>
      <polyline class="cls-3" points="60.3 122.8 61.7 129.9 63.1 122.8 60.3 122.8"/>
      <line class="cls-3" x1="61.7" y1="104.5" x2="61.7" y2="97.5"/>
      <polygon class="cls-9" points="63.1 104.5 63.1 104.5 61.7 97.5 60.3 104.5 63.1 104.5"/>
      <polyline class="cls-3" points="63.1 104.5 61.7 97.5 60.3 104.5 63.1 104.5"/>
      <line class="cls-3" x1="61.7" y1="122.8" x2="61.7" y2="104.5"/>
      <line class="cls-3" x1="123.3" y1="97.5" x2="52.7" y2="97.5"/>
      <line class="cls-3" x1="74.3" y1="129.9" x2="52.7" y2="129.9"/>
    </g>
  </g>
  <g class="cls-11">
    <g class="cls-5">
      <text class="cls-7" transform="translate(387.9 84.7) rotate(-48.2)"><tspan x="0" y="0"></tspan></text>
    </g>
  </g>
  <g class="cls-14">
    <g>
      <g class="cls-5">
        <text class="cls-6" transform="translate(395.2 76.4) rotate(-48.2)"><tspan x="0" y="0">3</tspan></text>
      </g>
      <g class="cls-5">
        <text class="cls-6" transform="translate(399.9 71.2) rotate(-48.2)"><tspan x="0" y="0">,</tspan></text>
      </g>
      <g class="cls-5">
        <text class="cls-6" transform="translate(402.1 68.7) rotate(-48.2)"><tspan x="0" y="0">0</tspan></text>
      </g>
      <g class="cls-5">
        <text class="cls-6" transform="translate(406.8 63.4) rotate(-48.2)"><tspan x="0" y="0">5</tspan></text>
      </g>
      <g class="cls-5">
        <text class="cls-6" transform="translate(374.5 99.4) rotate(-48.2)"><tspan x="0" y="0">2</tspan></text>
      </g>
      <g class="cls-5">
        <text class="cls-6" transform="translate(379.2 94.2) rotate(-48.2)"><tspan x="0" y="0">x</tspan></text>
      </g>
      <line class="cls-3" x1="367.2" y1="118.2" x2="362.5" y2="123.4"/>
      <polygon class="cls-9" points="366.1 117.3 366.1 117.3 362.5 123.4 368.2 119.1 366.1 117.3"/>
      <polyline class="cls-3" points="366.1 117.3 362.5 123.4 368.2 119.1 366.1 117.3"/>
      <polyline class="cls-3" points="367.2 118.2 398.3 83.6 418.1 61.3"/>
    </g>
  </g>
  <g class="cls-8">
    <g>
      <g class="cls-5">
        <text class="cls-6" transform="translate(368.4 158.1) rotate(20.9)"><tspan x="0" y="0">4</tspan></text>
      </g>
      <g class="cls-5">
        <text class="cls-6" transform="translate(375.8 160.8) rotate(20.9)"><tspan x="0" y="0">x</tspan></text>
      </g>
      <g class="cls-5">
        <text class="cls-6" transform="translate(387.9 165.5) rotate(20.9)"><tspan x="0" y="0">K</tspan></text>
      </g>
      <line class="cls-3" x1="340.9" y1="152.4" x2="334.2" y2="149.8"/>
      <polygon class="cls-9" points="341.4 151.1 341.4 151.1 334.2 149.8 340.3 153.8 341.4 151.1"/>
      <polyline class="cls-3" points="341.4 151.1 334.2 149.8 340.3 153.8 341.4 151.1"/>
      <polyline class="cls-3" points="340.9 152.4 380.3 167.5 395.8 173.4"/>
    </g>
  </g>
</svg>