<?xml version="1.0" encoding="utf-8"?>
<!-- Generator: Adobe Illustrator 28.3.0, SVG Export Plug-In . SVG Version: 6.00 Build 0)  -->
<svg version="1.1" id="Layer_1" xmlns="http://www.w3.org/2000/svg" xmlns:xlink="http://www.w3.org/1999/xlink" x="0px" y="0px"
	 viewBox="0 0 56.69 22.68" style="enable-background:new 0 0 56.69 22.68;" xml:space="preserve">
<style type="text/css">
	.st0{fill:#EE1C23;}
	.st1{fill:none;stroke:#221E1F;stroke-width:0.375;stroke-linecap:round;stroke-linejoin:round;stroke-miterlimit:10;}
	.st2{fill:#221E1F;}
	.st3{fill:none;stroke:#020000;stroke-width:0.36;stroke-linecap:square;stroke-miterlimit:10;}
</style>
<rect x="5.55" y="5.58" class="st0" width="31.32" height="12.36"/>
<rect x="5.67" y="5.7" class="st1" width="31.2" height="12.12"/>
<polygon class="st2" points="6.15,15.9 6.15,17.34 7.59,17.34 7.59,17.58 5.91,17.58 5.91,15.9 "/>
<polygon class="st2" points="6.15,7.62 6.15,6.3 7.59,6.3 7.59,5.94 5.91,5.94 5.91,7.62 "/>
<polygon class="st2" points="36.27,15.9 36.27,17.34 34.83,17.34 34.83,17.58 36.51,17.58 36.51,15.9 "/>
<polygon class="st2" points="36.27,7.62 36.27,6.3 34.83,6.3 34.83,5.94 36.51,5.94 36.51,7.62 "/>
<polygon class="st2" points="35.07,12.06 36.51,11.82 35.07,11.46 "/>
<polygon class="st2" points="5.91,11.82 7.35,12.06 7.35,11.46 "/>
<polygon class="st2" points="18.15,16.14 18.39,17.58 18.63,16.14 "/>
<polygon class="st2" points="18.15,7.38 18.63,7.38 18.39,5.94 "/>
<path class="st2" d="M29.55,9.18c-0.36-0.48-0.72-0.84-1.2-0.84L8.91,8.58c-0.24,0-0.48,0.24-0.48,0.48c0,0.24,0.24,0.48,0.48,0.48
	h17.88l0.12,0.12c0,0.12-0.12,0.24-0.12,0.24h-18c-0.12,0-0.36,0.12-0.36,0.36c0,0.12,0.24,0.36,0.36,0.36h18c0,0,0.12,0,0.12,0.12
	c0,0.12-0.12,0.12-0.12,0.12h-18c-0.12,0-0.36,0.24-0.36,0.36c0,0.24,0.24,0.36,0.36,0.36h18c0,0,0.12,0.12,0.12,0.24l-0.12,0.12
	h-18c-0.12,0-0.36,0.12-0.36,0.36c0,0.24,0.24,0.36,0.36,0.36h18l0.12,0.12c0,0.12-0.12,0.24-0.12,0.24h-18
	c-0.12,0-0.36,0.12-0.36,0.36c0,0.12,0.24,0.36,0.36,0.36h18c0,0,0.12,0,0.12,0.12s-0.12,0.12-0.12,0.12H8.91
	c-0.24,0-0.48,0.24-0.48,0.48c0,0.24,0.24,0.48,0.48,0.48l19.44,0.24c0.48,0,0.84-0.24,1.2-0.84c0.36-0.36,0.84-0.6,1.32-0.6h0.12
	c0.36,0,0.72,0,0.72,0c0,0.12-0.12,0.12-0.12,0.12h-0.48l-0.12,0.12v1.08l0.12,0.12h1.32c0.12,0,0.12-0.12,0.12-0.12v-1.08
	c0,0,0-0.12-0.12-0.12h-0.24c-0.12,0-0.24-0.12-0.24-0.24v-0.24c0-0.24-0.12-0.36-0.24-0.36h-1.2c-0.48,0-1.08,0.36-1.32,0.84
	c-0.24,0.36-0.6,0.6-0.84,0.6H10.11c-0.12,0-0.24,0-0.24-0.12c0-0.12,0.12-0.12,0.24-0.12h17.88c0.12,0,0.36-0.24,0.36-0.36
	c0-0.24-0.24-0.36-0.36-0.36H10.11c-0.12,0-0.24-0.12-0.24-0.12c0-0.12,0.12-0.24,0.24-0.24h17.88c0.12,0,0.36-0.12,0.36-0.36
	c0-0.12-0.24-0.36-0.36-0.36H10.11c-0.12,0-0.24,0-0.24-0.12c0-0.12,0.12-0.12,0.24-0.12h17.88c0.12,0,0.36-0.24,0.36-0.36
	c0-0.24-0.24-0.36-0.36-0.36H10.11c-0.12,0-0.24-0.12-0.24-0.24c0,0,0.12-0.12,0.24-0.12h17.88c0.12,0,0.36-0.12,0.36-0.36
	c0-0.24-0.24-0.36-0.36-0.36H10.11c-0.12,0-0.24-0.12-0.24-0.12c0-0.12,0.12-0.24,0.24-0.24h17.88c0.12,0,0.36-0.12,0.36-0.36
	c0-0.12-0.24-0.36-0.36-0.36H10.11c-0.12,0-0.24,0-0.24-0.12c0-0.12,0.12-0.12,0.24-0.12h18.24c0.24,0,0.6,0.24,0.84,0.6
	c0.24,0.48,0.84,0.84,1.32,0.84h1.2c0.12,0,0.24-0.12,0.24-0.24V9.9c0-0.12,0.12-0.24,0.24-0.24h0.24c0.12,0,0.12,0,0.12-0.12V8.58
	c0-0.12,0-0.24-0.12-0.24h-1.32c0,0-0.12,0.12-0.12,0.24v0.96c0,0.12,0.12,0.12,0.12,0.12h0.48c0,0,0.12,0,0.12,0.12
	c0,0-0.36,0-0.72,0h-0.12C30.39,9.78,29.91,9.54,29.55,9.18z"/>
<line class="st3" x1="31.83" y1="14.58" x2="51.15" y2="14.58"/>
<line class="st3" x1="31.83" y1="9.06" x2="51.15" y2="9.06"/>
</svg>
