<?xml version="1.0" encoding="UTF-8"?>
<svg id="Layer_1" data-name="Layer 1" xmlns="http://www.w3.org/2000/svg" version="1.1" xmlns:xlink="http://www.w3.org/1999/xlink" viewBox="0 0 433 149">
  <defs>
    <style>
      .cls-1, .cls-2 {
        stroke-width: 0px;
      }

      .cls-1, .cls-3, .cls-4 {
        fill: #231f20;
      }

      .cls-5 {
        clip-path: url(#clippath-2);
      }

      .cls-6 {
        clip-path: url(#clippath-6);
      }

      .cls-7, .cls-2, .cls-8, .cls-9, .cls-10 {
        fill: none;
      }

      .cls-7, .cls-8, .cls-9, .cls-10 {
        stroke: #231f20;
      }

      .cls-7, .cls-9, .cls-10 {
        stroke-width: .5px;
      }

      .cls-11 {
        clip-path: url(#clippath-1);
      }

      .cls-12 {
        clip-path: url(#clippath-4);
      }

      .cls-13 {
        letter-spacing: 0em;
      }

      .cls-14 {
        letter-spacing: 0em;
      }

      .cls-8, .cls-9, .cls-10 {
        stroke-miterlimit: 3.86;
      }

      .cls-15 {
        letter-spacing: -.01em;
      }

      .cls-16 {
        letter-spacing: .02em;
      }

      .cls-17 {
        clip-path: url(#clippath);
      }

      .cls-3 {
        font-size: 7px;
      }

      .cls-3, .cls-4 {
        font-family: Inter-Regular, Inter;
      }

      .cls-18 {
        clip-path: url(#clippath-3);
      }

      .cls-19 {
        letter-spacing: 0em;
      }

      .cls-4 {
        font-size: 9px;
      }

      .cls-20 {
        clip-path: url(#clippath-5);
      }

      .cls-21 {
        letter-spacing: 0em;
      }

      .cls-10 {
        stroke-dasharray: 0 0 1 1;
      }

      .cls-22 {
        letter-spacing: 0em;
      }
    </style>
    <clipPath id="clippath">
      <rect class="cls-2" x="16.72" y="69.62" width="234.92" height="49.65"/>
    </clipPath>
    <clipPath id="clippath-1">
      <rect class="cls-2" x="16.72" y="69.62" width="234.92" height="49.65"/>
    </clipPath>
    <clipPath id="clippath-2">
      <rect class="cls-2" x="16.72" y="69.62" width="234.92" height="49.65"/>
    </clipPath>
    <clipPath id="clippath-3">
      <rect class="cls-2" x="16.72" y="69.62" width="234.92" height="49.65"/>
    </clipPath>
    <clipPath id="clippath-4">
      <rect class="cls-2" x="328.64" y="70.82" width="81.81" height="49.32"/>
    </clipPath>
    <clipPath id="clippath-5">
      <rect class="cls-2" x="328.64" y="70.82" width="81.81" height="49.32"/>
    </clipPath>
    <clipPath id="clippath-6">
      <rect class="cls-2" x="328.64" y="70.82" width="81.81" height="49.32"/>
    </clipPath>
  </defs>
  <text class="cls-4" transform="translate(14.68 22.61)"><tspan class="cls-19" x="0" y="0">Configuratio</tspan><tspan class="cls-13" x="51.63" y="0">n</tspan><tspan class="cls-21" x="56.86" y="0"> </tspan><tspan class="cls-19" x="59.48" y="0">for</tspan><tspan class="cls-21" x="71.35" y="0"> </tspan><tspan class="cls-19" x="73.97" y="0">val</tspan><tspan class="cls-13" x="86.02" y="0">v</tspan><tspan class="cls-19" x="90.99" y="0">e</tspan><tspan class="cls-21" x="96.16" y="0"> </tspan><tspan class="cls-14" x="98.78" y="0">op</tspan><tspan class="cls-15" x="109.52" y="0">e</tspan><tspan class="cls-19" x="114.68" y="0">ning</tspan><tspan class="cls-22" x="132.69" y="0" xml:space="preserve">  </tspan><tspan x="137.91" y="0">P</tspan></text>
  <text class="cls-4" transform="translate(161.74 22.61)"><tspan class="cls-16" x="0" y="0" xml:space="preserve">       </tspan><tspan x="18.98" y="0"> </tspan></text>
  <text class="cls-4" transform="translate(188.16 22.61)"><tspan class="cls-19" x="0" y="0">B,</tspan><tspan class="cls-22" x="8.32" y="0"> </tspan><tspan class="cls-19" x="10.93" y="0">A</tspan><tspan class="cls-22" x="17.06" y="0" xml:space="preserve">    </tspan><tspan class="cls-21" x="27.51" y="0"> </tspan><tspan class="cls-22" x="30.13" y="0" xml:space="preserve">   </tspan><tspan class="cls-21" x="37.97" y="0"> </tspan><tspan class="cls-22" x="40.59" y="0" xml:space="preserve">  </tspan><tspan x="45.81" y="0">T</tspan></text>
  <g class="cls-17">
    <rect class="cls-10" x="170.07" y="70.2" width="81.31" height="20.59"/>
  </g>
  <rect class="cls-8" x="177.2" y="83.26" width="68.79" height="22.1"/>
  <rect class="cls-1" x="189.56" y="75.07" width="11.05" height="4.79"/>
  <path class="cls-9" d="M186.07,90.04v-12.36h17.74v12.36M189.56,75.07h11.05v4.79h-11.05v-4.79Z"/>
  <rect class="cls-1" x="185.18" y="86.56" width="2.33" height="4.59"/>
  <rect class="cls-1" x="202.61" y="86.56" width="2.33" height="4.59"/>
  <rect class="cls-1" x="222.82" y="75.07" width="11.05" height="4.79"/>
  <path class="cls-9" d="M219.33,90.04v-12.36h17.74v12.36M222.82,75.07h11.05v4.79h-11.05v-4.79Z"/>
  <rect class="cls-1" x="218.43" y="86.56" width="2.33" height="4.59"/>
  <rect class="cls-1" x="235.87" y="86.56" width="2.33" height="4.59"/>
  <g class="cls-11">
    <path class="cls-9" d="M205.96,92.65v.05c0,1.09-.88,1.98-1.97,1.98s-1.97-.88-1.97-1.98c0-.01,0-.03.06-.05M188.09,92.27v.05c0,1.09-.88,1.98-1.97,1.98s-1.97-.88-1.97-1.98c0-.01,0-.03.06-.05M221.71,92.65v.05c0,1.09-.88,1.98-1.97,1.98s-1.97-.88-1.97-1.98c0-.01,0-.03.06-.05M239.09,92.65v.05c0,1.09-.88,1.98-1.97,1.98s-1.97-.88-1.97-1.98c0-.01,0-.03.06-.05M186.07,94.4v24.88M237.2,94.4v24.88M203.82,94.77v19.25h15.75v-19.12"/>
    <rect class="cls-10" x="16.97" y="69.87" width="81.31" height="20.59"/>
  </g>
  <rect class="cls-8" x="24.09" y="82.93" width="68.79" height="22.1"/>
  <rect class="cls-1" x="36.45" y="74.74" width="11.05" height="4.79"/>
  <path class="cls-9" d="M32.97,89.71v-12.36h17.74v12.36M36.45,74.74h11.05v4.79h-11.05v-4.79Z"/>
  <rect class="cls-1" x="32.07" y="86.23" width="2.33" height="4.59"/>
  <rect class="cls-1" x="49.5" y="86.23" width="2.33" height="4.59"/>
  <rect class="cls-1" x="69.71" y="74.74" width="11.05" height="4.79"/>
  <path class="cls-9" d="M66.22,89.71v-12.36h17.74v12.36M69.71,74.74h11.05v4.79h-11.05v-4.79Z"/>
  <rect class="cls-1" x="65.32" y="86.23" width="2.33" height="4.59"/>
  <rect class="cls-1" x="82.76" y="86.23" width="2.33" height="4.59"/>
  <g class="cls-5">
    <path class="cls-9" d="M52.85,92.31v.05c0,1.09-.88,1.97-1.97,1.97s-1.97-.88-1.97-1.97c0-.01,0-.03.07-.05M34.98,91.94v.05c0,1.09-.88,1.97-1.97,1.97s-1.97-.88-1.97-1.97c0-.01,0-.03.07-.05M68.6,92.31v.05c0,1.09-.88,1.97-1.97,1.97s-1.97-.88-1.97-1.97c0-.01,0-.03.06-.05M85.98,92.31v.05c0,1.09-.88,1.97-1.97,1.97s-1.97-.88-1.97-1.97c0-.01,0-.03.06-.05M32.97,94.06v24.88M84.09,94.06v24.88M50.73,94.44l-.02,24.5M66.48,118.94l-.02-24.38"/>
  </g>
  <text class="cls-3" transform="translate(26.52 89.66)"><tspan x="0" y="0" xml:space="preserve">A                B C                </tspan></text>
  <g class="cls-18">
    <g>
      <text class="cls-3" transform="translate(179.52 89.66)"><tspan x="0" y="0">A</tspan></text>
      <text class="cls-3" transform="translate(86.41 89.66)"><tspan x="0" y="0">D</tspan></text>
    </g>
  </g>
  <text class="cls-3" transform="translate(184.21 89.66)"><tspan x="0" y="0" xml:space="preserve">                B C                </tspan></text>
  <text class="cls-3" transform="translate(239.41 89.66)"><tspan x="0" y="0">D</tspan></text>
  <g class="cls-12">
    <rect class="cls-10" x="328.89" y="71.07" width="81.31" height="20.59"/>
  </g>
  <rect class="cls-8" x="336.02" y="84.13" width="68.79" height="22.1"/>
  <rect class="cls-1" x="348.37" y="75.94" width="11.05" height="4.79"/>
  <path class="cls-9" d="M344.89,90.91v-12.36h17.74v12.36M348.37,75.94h11.05v4.79h-11.05v-4.79Z"/>
  <rect class="cls-1" x="343.99" y="87.43" width="2.33" height="4.59"/>
  <rect class="cls-1" x="361.43" y="87.43" width="2.33" height="4.59"/>
  <rect class="cls-1" x="381.63" y="75.94" width="11.05" height="4.79"/>
  <path class="cls-9" d="M378.15,90.91v-12.36h17.74v12.36M381.63,75.94h11.05v4.79h-11.05v-4.79Z"/>
  <rect class="cls-1" x="377.25" y="87.43" width="2.33" height="4.59"/>
  <rect class="cls-1" x="394.69" y="87.43" width="2.33" height="4.59"/>
  <g class="cls-20">
    <path class="cls-9" d="M364.78,93.51v.05c0,1.09-.88,1.98-1.97,1.98s-1.98-.88-1.98-1.98c0-.02,0-.03.06-.05M346.9,93.14v.05c0,1.09-.88,1.98-1.97,1.98s-1.98-.88-1.98-1.98c0-.02,0-.03.06-.05M380.53,93.51v.05c0,1.09-.88,1.98-1.97,1.98s-1.97-.88-1.97-1.98c0-.02,0-.03.06-.05M397.9,93.51v.05c0,1.09-.88,1.98-1.97,1.98s-1.97-.88-1.97-1.98c0-.02,0-.03.06-.05M344.89,95.26v24.88M362.64,95.51v15.38h33.38M378.52,95.51v21.62h-33.62M396.02,95.26v24.88"/>
    <path class="cls-1" d="M343.61,117.07c0-.67.54-1.21,1.21-1.21s1.21.54,1.21,1.21-.54,1.21-1.21,1.21-1.21-.54-1.21-1.21"/>
  </g>
  <text class="cls-3" transform="translate(338.21 90.61)"><tspan x="0" y="0" xml:space="preserve">A                B C                </tspan></text>
  <text class="cls-3" transform="translate(398.1 90.61)"><tspan x="0" y="0">D</tspan></text>
  <g class="cls-6">
    <path class="cls-1" d="M394.78,110.93c0-.67.54-1.21,1.21-1.21s1.21.54,1.21,1.21-.54,1.21-1.21,1.21-1.21-.54-1.21-1.21"/>
  </g>
  <text class="cls-4" transform="translate(16.19 58.37)"><tspan class="cls-19" x="0" y="0">Singl</tspan><tspan x="20.57" y="0">e</tspan></text>
  <text class="cls-4" transform="translate(41.38 58.37)"><tspan x="0" y="0"> </tspan></text>
  <text class="cls-4" transform="translate(170.19 58.37)"><tspan class="cls-19" x="0" y="0">Serie</tspan><tspan x="21.43" y="0">s</tspan></text>
  <text class="cls-4" transform="translate(195.58 58.37)"><tspan x="0" y="0"> </tspan></text>
  <text class="cls-4" transform="translate(329.19 58.37)"><tspan class="cls-19" x="0" y="0">Paralle</tspan><tspan x="28.28" y="0">l</tspan></text>
  <line class="cls-7" x1="163.72" y1="20.02" x2="182.78" y2="20.02"/>
  <polyline class="cls-7" points="176.71 17.81 182.78 20.02 176.71 22.23"/>
  <line class="cls-7" x1="210.18" y1="20.62" x2="229.24" y2="20.62"/>
  <polyline class="cls-7" points="223.17 18.41 229.25 20.62 223.17 22.83"/>
  <text class="cls-4" transform="translate(159.16 132.38)"><tspan x="0" y="0">A (+), D (-), B and C connected</tspan></text>
  <text class="cls-4" transform="translate(12.52 132.38)"><tspan x="0" y="0">A (+), B (-) or C (+), D (-)</tspan></text>
  <text class="cls-4" transform="translate(329.92 132.17)"><tspan x="0" y="0">A and C (+), B and D (-)</tspan></text>
</svg>