<?xml version="1.0" encoding="utf-8"?>
<!-- Generator: Adobe Illustrator 28.3.0, SVG Export Plug-In . SVG Version: 6.00 Build 0)  -->
<svg version="1.1" id="Layer_1" xmlns="http://www.w3.org/2000/svg" xmlns:xlink="http://www.w3.org/1999/xlink" x="0px" y="0px"
	 viewBox="0 0 62.74 58.04" style="enable-background:new 0 0 62.74 58.04;" xml:space="preserve">
<style type="text/css">
	.st0{fill:#EE1C23;}
	.st1{fill:none;stroke:#221E1F;stroke-width:0.375;stroke-linecap:round;stroke-linejoin:round;stroke-miterlimit:10;}
	.st2{fill:#221E1F;}
	.st3{fill-rule:evenodd;clip-rule:evenodd;fill:#221E1F;}
	.st4{fill:none;stroke:#020000;stroke-width:0.36;stroke-miterlimit:10;}
</style>
<path class="st0" d="M11.79,22.02c0-11.04,8.88-19.92,19.8-19.92c11.04,0,19.92,8.88,19.92,19.92c0,10.92-8.88,19.8-19.92,19.8
	C20.67,41.82,11.79,32.94,11.79,22.02z"/>
<path class="st1" d="M11.79,22.02c0-11.04,8.88-19.92,19.8-19.92c11.04,0,19.92,8.88,19.92,19.92c0,10.92-8.88,19.8-19.92,19.8
	C20.67,41.82,11.79,32.94,11.79,22.02z"/>
<path class="st2" d="M41.43,21.3c0.12-0.6,0-1.08-0.36-1.32L27.63,6.9c-0.24-0.24-0.48-0.24-0.72,0c-0.24,0.12-0.24,0.48,0,0.72
	l12.36,12.36c0,0,0,0.12,0,0.24c-0.12,0-0.24,0-0.24,0L26.55,7.74c-0.12-0.12-0.36-0.12-0.48,0c-0.24,0.12-0.24,0.36,0,0.6
	L38.43,20.7c0.12,0.12,0.12,0.24,0,0.24c0,0.12-0.12,0.12-0.24,0L25.83,8.58c-0.24-0.24-0.48-0.24-0.6,0
	c-0.12,0.12-0.12,0.36,0,0.48l12.48,12.48c0,0,0,0.12,0,0.24c-0.12,0-0.24,0-0.24,0L24.99,9.3c-0.12-0.12-0.36-0.12-0.6,0
	c-0.12,0.24-0.12,0.48,0,0.6l12.48,12.48c0,0,0,0.12,0,0.24c-0.12,0-0.24,0-0.24,0L24.15,10.14c-0.12-0.12-0.36-0.12-0.48,0
	c-0.24,0.12-0.24,0.36,0,0.6L36.03,23.1c0.12,0.12,0.12,0.24,0,0.24c0,0.12-0.12,0.12-0.24,0L23.43,10.98
	c-0.12-0.12-0.48-0.12-0.72,0c-0.12,0.24-0.12,0.6,0,0.72l13.08,13.44c0.36,0.36,0.84,0.48,1.44,0.36c0.6,0,1.2,0.24,1.56,0.6
	l0.12,0.12c0.24,0.24,0.36,0.36,0.36,0.48h-0.12l-0.24-0.36c-0.12,0-0.24,0-0.24,0l-0.72,0.72c0,0.12,0,0.12,0,0.24l0.96,0.84
	c0,0.12,0.12,0.12,0.12,0l0.72-0.6c0.12-0.12,0.12-0.24,0-0.24l-0.12-0.12c-0.12-0.12-0.12-0.36,0-0.48l0.12-0.12
	c0.12-0.12,0.12-0.36,0-0.48l-0.6-0.72c-0.48-0.48-1.2-0.6-1.8-0.48c-0.48,0.12-0.84,0-0.96-0.24L23.67,11.94
	c-0.12,0-0.12-0.12,0-0.24c0,0,0.12,0,0.24,0l12.36,12.48c0.12,0.12,0.48,0.12,0.6,0c0.12-0.12,0.12-0.36,0-0.6L24.39,11.22
	c0-0.12,0-0.24,0-0.24c0.12-0.12,0.24-0.12,0.24,0l12.48,12.36c0.12,0.24,0.36,0.24,0.6,0c0.12-0.12,0.12-0.36,0-0.48L25.23,10.38
	c-0.12-0.12-0.12-0.12,0-0.24c0.12-0.12,0.12-0.12,0.24,0l12.48,12.48c0.12,0.12,0.36,0.12,0.48,0c0.24-0.24,0.24-0.48,0-0.6
	L26.07,9.54c-0.12,0-0.12-0.12,0-0.24c0,0,0.12,0,0.24,0l12.36,12.48c0.24,0.12,0.48,0.12,0.6,0c0.12-0.12,0.12-0.48,0-0.6
	L26.79,8.82c0-0.12,0-0.24,0-0.24c0.12-0.12,0.24-0.12,0.24,0l12.48,12.36c0.12,0.12,0.36,0.12,0.6,0c0.12-0.12,0.12-0.36,0-0.48
	L27.63,7.98c-0.12-0.12-0.12-0.12,0-0.24c0.12-0.12,0.12-0.12,0.24,0l12.72,12.72c0.24,0.24,0.24,0.48,0.12,0.96
	c-0.12,0.6,0.12,1.32,0.6,1.8l0.72,0.72c0.12,0.12,0.24,0.12,0.36,0l0.24-0.24c0.12-0.12,0.24-0.12,0.36,0l0.12,0.12
	c0.12,0.12,0.24,0.12,0.24,0l0.72-0.6c0-0.12,0-0.24,0-0.24l-0.96-0.96h-0.12l-0.72,0.72c-0.12,0.12-0.12,0.12,0,0.24l0.24,0.24
	c0.12,0.12,0.12,0.12,0,0.12c0,0.12-0.24-0.12-0.48-0.36C41.55,22.5,41.31,21.9,41.43,21.3z"/>
<polygon class="st0" points="37.35,15.9 31.47,21.66 25.71,15.9 31.47,10.02 "/>
<path class="st1" d="M38.31,3.3L12.99,28.62c0.96,2.76,2.4,5.16,4.44,7.2L45.51,7.74C43.47,5.82,41.07,4.26,38.31,3.3z"/>
<path class="st2" d="M26.07,25.5c0.6,0.12,1.08,0,1.32-0.36l13.2-13.44c0.12-0.12,0.12-0.48,0-0.72c-0.24-0.12-0.6-0.12-0.72,0
	L27.51,23.34c-0.12,0.12-0.24,0.12-0.24,0c-0.12,0-0.12-0.12,0-0.24l12.36-12.36c0.24-0.24,0.24-0.48,0-0.6
	c-0.12-0.12-0.36-0.12-0.48,0L26.67,22.62c-0.12,0-0.12,0-0.24,0c-0.12-0.12-0.12-0.24,0-0.24L38.91,9.9c0.12-0.12,0.12-0.36,0-0.6
	c-0.24-0.12-0.48-0.12-0.6,0L25.83,21.78c0,0-0.12,0-0.24,0c0-0.12,0-0.24,0-0.24L38.07,9.06c0.12-0.12,0.12-0.36,0-0.48
	c-0.12-0.24-0.48-0.24-0.6,0L25.11,20.94c-0.12,0.12-0.24,0.12-0.24,0c-0.12,0-0.12-0.12,0-0.24L37.23,8.34
	c0.12-0.24,0.12-0.48,0-0.6c-0.12-0.12-0.36-0.12-0.48,0L24.27,20.22c-0.12,0-0.12,0-0.24,0c-0.12-0.12-0.12-0.24,0-0.24L36.39,7.62
	c0.12-0.24,0.12-0.6,0-0.72c-0.24-0.24-0.6-0.24-0.72,0L22.23,19.98c-0.36,0.24-0.48,0.72-0.36,1.32c0,0.6-0.12,1.2-0.6,1.68
	c-0.24,0.24-0.48,0.48-0.48,0.36c-0.12,0-0.12,0,0-0.12l0.24-0.24c0-0.12,0-0.12,0-0.24l-0.72-0.72c0,0-0.12,0-0.24,0l-0.84,0.96
	c-0.12,0-0.12,0.12,0,0.24l0.72,0.6c0,0.12,0.12,0.12,0.12,0l0.24-0.12c0.12-0.12,0.24-0.12,0.36,0l0.24,0.24
	c0.12,0.12,0.24,0.12,0.36,0l0.72-0.72c0.48-0.48,0.6-1.2,0.48-1.8c0-0.48,0-0.72,0.24-0.96L35.43,7.74c0-0.12,0.12-0.12,0.24,0
	c0,0.12,0,0.12,0,0.24L23.19,20.46c-0.12,0.12-0.12,0.36,0,0.48c0.24,0.12,0.48,0.12,0.6,0L36.27,8.58c0-0.12,0.12-0.12,0.24,0
	c0,0,0,0.12,0,0.24L24.03,21.18c-0.12,0.12-0.12,0.48,0,0.6c0.12,0.12,0.36,0.12,0.6,0L36.99,9.3c0.12,0,0.24,0,0.24,0
	c0.12,0.12,0.12,0.24,0,0.24L24.87,22.02c-0.24,0.12-0.24,0.36,0,0.6c0.12,0.12,0.36,0.12,0.48,0l12.48-12.48
	c0-0.12,0.12-0.12,0.24,0c0,0.12,0,0.12,0,0.24L25.59,22.86c-0.12,0.12-0.12,0.36,0,0.48c0.24,0.24,0.48,0.24,0.6,0l12.48-12.36
	c0-0.12,0.12-0.12,0.24,0c0,0,0,0.12,0,0.24L26.43,23.58c-0.12,0.24-0.12,0.48,0,0.6c0.12,0.12,0.36,0.12,0.6,0L39.39,11.7
	c0.12,0,0.24,0,0.24,0c0.12,0.12,0.12,0.24,0,0.24L26.91,24.66c-0.12,0.24-0.48,0.36-0.96,0.24c-0.6-0.12-1.32,0-1.8,0.48
	l-0.72,0.72c-0.12,0.12-0.12,0.36,0,0.48l0.24,0.12c0.12,0.12,0.12,0.36,0,0.48l-0.12,0.12c-0.12,0-0.12,0.12,0,0.12l0.72,0.72
	c0,0.12,0.12,0.12,0.12,0l0.96-0.84c0-0.12,0-0.12,0-0.24l-0.72-0.72c0,0-0.12,0-0.24,0l-0.24,0.36h-0.12c0-0.12,0.12-0.24,0.36-0.6
	h0.12C24.87,25.74,25.47,25.5,26.07,25.5z"/>
<rect x="27.27" y="5.34" class="st0" width="8.64" height="20.88"/>
<path class="st1" d="M31.59,2.1c-1.44,0-2.88,0.24-4.2,0.48v38.76c1.32,0.36,2.76,0.48,4.2,0.48c1.56,0,2.88-0.12,4.32-0.48V2.58
	C34.47,2.34,33.15,2.1,31.59,2.1z"/>
<path class="st2" d="M34.59,26.58c0.48-0.36,0.72-0.72,0.72-1.2L35.07,6.66c0-0.36-0.24-0.6-0.48-0.6c-0.24,0-0.48,0.24-0.48,0.6
	v17.4c0,0.12-0.12,0.24-0.24,0.24c0,0-0.12-0.12-0.12-0.24V6.54c0-0.24-0.24-0.48-0.36-0.48c-0.24,0-0.48,0.24-0.48,0.48v17.52
	c0,0.12,0,0.24-0.12,0.24c-0.12,0-0.24-0.12-0.24-0.24V6.54c0-0.24-0.12-0.48-0.36-0.48s-0.36,0.24-0.36,0.48v17.52
	c0,0.12-0.12,0.24-0.24,0.24c0,0-0.12-0.12-0.12-0.24V6.54c0-0.24-0.12-0.48-0.36-0.48c-0.24,0-0.48,0.24-0.48,0.48v17.52
	c0,0.12,0,0.24-0.12,0.24c-0.12,0-0.12-0.12-0.12-0.24V6.54c0-0.24-0.24-0.48-0.48-0.48s-0.36,0.24-0.36,0.48v17.52
	c0,0.12-0.12,0.24-0.12,0.24c-0.12,0-0.24-0.12-0.24-0.24V6.66c0-0.36-0.24-0.6-0.48-0.6c-0.24,0-0.48,0.24-0.48,0.6l-0.24,18.72
	c0,0.48,0.24,0.84,0.6,1.2c0.48,0.36,0.84,0.96,0.84,1.56v0.12c0,0.36-0.12,0.6-0.12,0.6s-0.12,0-0.12-0.12v-0.36
	c0-0.12,0-0.12-0.12-0.12h-0.96c-0.12,0-0.12,0-0.12,0.12v1.32c0,0,0,0.12,0.12,0.12h0.96c0.12,0,0.12-0.12,0.12-0.12v-0.24
	c0-0.24,0.12-0.36,0.36-0.36h0.24c0.12,0,0.24-0.12,0.24-0.24V27.9c0-0.72-0.24-1.32-0.84-1.68c-0.36-0.24-0.6-0.48-0.6-0.84v-18
	c0,0,0.12-0.12,0.24-0.12s0.12,0.12,0.12,0.12v17.64c0,0.24,0.24,0.36,0.48,0.36c0.12,0,0.36-0.12,0.36-0.36V7.38
	c0,0,0-0.12,0.12-0.12s0.24,0.12,0.24,0.12v17.64c0,0.24,0.12,0.36,0.36,0.36c0.24,0,0.36-0.12,0.36-0.36V7.38
	c0,0,0.12-0.12,0.24-0.12l0.12,0.12v17.64c0,0.24,0.24,0.36,0.36,0.36c0.24,0,0.48-0.12,0.48-0.36V7.38c0,0,0-0.12,0.12-0.12
	s0.24,0.12,0.24,0.12v17.64c0,0.24,0.12,0.36,0.36,0.36c0.24,0,0.36-0.12,0.36-0.36V7.38c0,0,0.12-0.12,0.24-0.12l0.12,0.12v17.64
	c0,0.24,0.12,0.36,0.36,0.36c0.24,0,0.48-0.12,0.48-0.36V7.38c0,0,0-0.12,0.12-0.12c0.12,0,0.12,0.12,0.12,0.12v18
	c0,0.36-0.12,0.6-0.48,0.84c-0.6,0.36-0.96,0.96-0.96,1.68v0.96c0,0.12,0.24,0.24,0.36,0.24h0.24c0.12,0,0.36,0.12,0.36,0.36v0.24
	c0,0,0,0.12,0.12,0.12h0.96c0.12,0,0.12-0.12,0.12-0.12v-1.32c0-0.12,0-0.12-0.12-0.12h-0.96c-0.12,0-0.12,0-0.12,0.12v0.36
	c0,0.12-0.12,0.12-0.12,0.12c-0.12,0-0.12-0.24-0.12-0.6v-0.12C33.87,27.54,34.11,26.94,34.59,26.58z"/>
<polygon class="st2" points="16.95,30.78 16.59,30.42 14.67,32.34 15.03,32.82 "/>
<polygon class="st2" points="39.87,7.98 39.51,7.5 41.91,4.98 42.51,5.34 "/>
<polygon class="st2" points="20.79,5.34 23.43,7.98 23.79,7.5 21.27,4.98 "/>
<polygon class="st2" points="48.27,32.82 46.23,30.78 46.71,30.42 48.63,32.34 "/>
<path class="st3" d="M31.35,2.1h0.6v2.4h-0.6V2.1z M31.35,36.66h0.6v5.16h-0.6V36.66z"/>
<polygon class="st2" points="12.87,15.42 12.75,16.02 18.03,16.02 18.03,15.42 "/>
<polygon class="st2" points="45.27,15.42 45.27,16.02 50.55,16.02 50.43,15.42 "/>
<polygon class="st2" points="47.55,23.82 49.23,25.5 49.35,25.26 47.43,23.22 47.19,23.46 47.43,23.94 "/>
<path class="st2" d="M15.03,25.98l-1.32-1.32l1.8,0.36c0.36,0.12,0.84-0.24,0.96-0.72c0-0.24-0.12-0.48-0.24-0.72l-0.48-0.36
	c-0.24-0.36-0.84-0.36-1.2,0l0.24,0.12c0.24-0.24,0.6-0.24,0.84,0l0.36,0.48c0.12,0.12,0.24,0.24,0.12,0.48
	c0,0.24-0.24,0.48-0.6,0.48l-2.16-0.36l-0.12,0.12l1.56,1.68L15.03,25.98z"/>
<path class="st2" d="M37.11,32.46c-0.24,0-0.48,0.24-0.48,0.48h-0.24c0-0.48,0.36-0.72,0.72-0.72h0.48c0.12,0,0.36,0.12,0.48,0.24
	c0.24,0.36,0.24,0.72-0.12,0.96c0.24,0.24,0.48,0.48,0.48,0.72c0,0.48-0.48,0.84-0.84,0.84h-0.6c-0.48,0-0.84-0.36-0.84-0.84h0.24
	c0,0.36,0.24,0.6,0.6,0.6h0.6c0.24,0,0.48-0.24,0.48-0.6c0-0.24-0.24-0.48-0.48-0.48c-0.12,0-0.12,0-0.12,0h-0.48V33.3h0.6
	c0.24,0,0.36-0.12,0.36-0.36c0-0.24-0.12-0.48-0.36-0.48H37.11z"/>
<line class="st4" x1="38.67" y1="27.18" x2="56.31" y2="44.82"/>
<line class="st4" x1="42.99" y1="22.74" x2="60.63" y2="40.38"/>
<line class="st4" x1="28.59" y1="29.1" x2="28.59" y2="55.98"/>
<line class="st4" x1="34.83" y1="29.1" x2="34.83" y2="55.98"/>
<line class="st4" x1="6.87" y1="44.94" x2="24.39" y2="27.42"/>
<line class="st4" x1="2.55" y1="40.5" x2="20.07" y2="22.98"/>
</svg>
